# This file uses centimeters as units for non-parametric coordinates.

mtllib Flecha.mtl
g default
v 0.025000 9.830476 -6.322757
v -0.025000 9.830476 -6.322757
v -0.050000 9.787174 -6.322757
v -0.025000 9.743873 -6.322757
v 0.025000 9.743873 -6.322757
v 0.050000 9.787174 -6.322757
v 0.025000 9.830476 -3.322757
v -0.025000 9.830476 -3.322757
v -0.050000 9.787174 -3.322757
v -0.025000 9.743873 -3.322757
v 0.025000 9.743873 -3.322757
v 0.050000 9.787174 -3.322757
v 0.000000 9.787174 -3.322757
v 0.000000 9.830476 -6.322757
v 0.000000 9.830476 -3.322757
v -0.000000 9.743873 -6.322757
v -0.000000 9.743873 -3.322757
v 0.025000 9.743873 -6.342498
v 0.049801 9.787174 -6.342498
v -0.000000 9.743873 -6.342498
v 0.000000 9.830476 -6.342498
v 0.025000 9.830476 -6.342498
v -0.049801 9.787174 -6.342498
v -0.025000 9.743873 -6.342498
v -0.025000 9.830476 -6.342498
v 0.014069 9.726836 -6.352813
v 0.044755 9.787174 -6.364645
v -0.000000 9.711171 -6.352813
v 0.000000 9.863177 -6.352813
v 0.014069 9.847512 -6.352813
v -0.044755 9.787174 -6.364645
v -0.014069 9.726836 -6.352813
v -0.014069 9.847512 -6.352813
v 0.000000 9.787174 -6.632080
vt 0.885402 0.383997
vt 0.885410 0.397047
vt 0.885404 0.410097
vt 0.885429 0.423147
vt 0.885388 0.357897
vt 0.885380 0.370947
vt 0.516409 0.260920
vt 0.463764 0.250518
vt 0.446450 0.199725
vt 0.481781 0.159333
vt 0.534426 0.169735
vt 0.551740 0.220528
vt 0.499095 0.210126
vt 0.885408 0.390522
vt 0.102392 0.391009
vt 0.885437 0.429672
vt 0.102417 0.430160
vt 0.308114 0.167295
vt 0.324443 0.190286
vt 0.197191 0.097889
vt 0.274989 0.135083
vt 0.286983 0.150243
vt 0.205951 0.108126
vt 0.233209 0.115358
vt 0.256586 0.129168
vt 0.299746 0.176432
vt 0.326353 0.202867
vt 0.182225 0.108923
vt 0.267648 0.145671
vt 0.276480 0.149830
vt 0.193498 0.110749
vt 0.227585 0.126398
vt 0.260656 0.138858
vt 0.182232 0.268861
vt 0.890582 0.423133
vt 0.890592 0.429661
vt 0.890561 0.390519
vt 0.890564 0.397051
vt 0.890556 0.410093
vt 0.890531 0.370945
vt 0.890555 0.383986
vt 0.890541 0.357905
vt 0.885388 0.351372
vt 0.890542 0.351377
vt 0.508103 0.164534
vt 0.102368 0.351858
vt 0.102372 0.358383
vt 0.490087 0.255719
vt 0.102396 0.397534
vt 0.102380 0.371434
vt 0.102388 0.384484
vt 0.102413 0.423635
vt 0.102405 0.410585
vt 0.332017 0.212784
vt 0.337102 0.194899
vn 0.000000 1.000000 0.000000
vn 0.000000 1.000000 0.000000
vn 0.000000 1.000000 0.000000
vn 0.000000 1.000000 0.000000
vn -0.866027 0.499997 0.000000
vn -0.866027 0.499997 0.000000
vn -0.866027 0.499997 0.000000
vn -0.866027 0.499997 0.000000
vn -0.866027 -0.499997 0.000000
vn -0.866027 -0.499997 0.000000
vn -0.866027 -0.499997 0.000000
vn -0.866027 -0.499997 0.000000
vn 0.000000 -1.000000 0.000000
vn 0.000000 -1.000000 0.000000
vn 0.000000 -1.000000 0.000000
vn 0.000000 -1.000000 0.000000
vn 0.866027 -0.499997 0.000000
vn 0.866027 -0.499997 0.000000
vn 0.866027 -0.499997 0.000000
vn 0.866027 -0.499997 0.000000
vn 0.866027 0.499997 0.000000
vn 0.866027 0.499997 0.000000
vn 0.866027 0.499997 0.000000
vn 0.866027 0.499997 0.000000
vn 0.000000 0.000000 1.000000
vn 0.000000 0.000000 1.000000
vn 0.000000 0.000000 1.000000
vn 0.000000 0.000000 1.000000
vn 0.000000 0.000000 1.000000
vn 0.000000 0.000000 1.000000
vn 0.000000 0.000000 1.000000
vn 0.000000 0.000000 1.000000
vn 0.000000 0.000000 1.000000
vn 0.000000 1.000000 0.000000
vn 0.000000 1.000000 0.000000
vn 0.000000 -1.000000 0.000000
vn 0.000000 -1.000000 0.000000
vn 0.866879 -0.498500 -0.004362
vn 0.866879 -0.498500 -0.004362
vn 0.866879 -0.498500 -0.004362
vn 0.866879 -0.498499 -0.004362
vn 0.000000 -1.000000 0.000000
vn 0.000000 -1.000000 0.000000
vn 0.000000 -1.000000 0.000000
vn 0.000000 -1.000000 0.000000
vn 0.000000 1.000000 0.000000
vn 0.000000 1.000000 0.000000
vn 0.000000 1.000000 0.000000
vn 0.000000 1.000000 0.000000
vn 0.866879 0.498499 -0.004361
vn 0.866879 0.498499 -0.004361
vn 0.866879 0.498499 -0.004361
vn 0.866879 0.498499 -0.004361
vn -0.866879 -0.498499 -0.004369
vn -0.866879 -0.498499 -0.004369
vn -0.866879 -0.498499 -0.004369
vn -0.866879 -0.498499 -0.004369
vn -0.866879 0.498500 -0.004357
vn -0.866879 0.498500 -0.004357
vn -0.866879 0.498500 -0.004357
vn -0.866879 0.498500 -0.004357
vn 0.000000 1.000000 0.000009
vn 0.000000 1.000000 0.000009
vn 0.000000 1.000000 0.000009
vn 0.000000 1.000000 0.000009
vn 0.000000 -1.000000 0.000000
vn 0.000000 -1.000000 0.000000
vn 0.000000 -1.000000 0.000000
vn 0.000000 -1.000000 0.000000
vn 0.860269 -0.480154 -0.171435
vn 0.860269 -0.480154 -0.171435
vn 0.860269 -0.480154 -0.171435
vn 0.860269 -0.480154 -0.171435
vn 0.163785 -0.408440 0.897971
vn 0.163785 -0.408440 0.897971
vn 0.163785 -0.408440 0.897971
vn 0.163785 -0.408440 0.897971
vn 0.163773 0.408446 0.897970
vn 0.163773 0.408446 0.897970
vn 0.163773 0.408446 0.897970
vn 0.163773 0.408446 0.897970
vn 0.860266 0.480160 -0.171433
vn 0.860266 0.480160 -0.171433
vn 0.860266 0.480160 -0.171433
vn 0.860266 0.480160 -0.171433
vn -0.860266 -0.480160 -0.171433
vn -0.860266 -0.480160 -0.171433
vn -0.860266 -0.480160 -0.171433
vn -0.860266 -0.480160 -0.171433
vn -0.860268 0.480153 -0.171442
vn -0.860268 0.480154 -0.171442
vn -0.860268 0.480154 -0.171442
vn -0.860268 0.480154 -0.171442
vn -0.163785 0.408440 0.897971
vn -0.163785 0.408440 0.897971
vn -0.163785 0.408440 0.897971
vn -0.163785 0.408440 0.897971
vn -0.163768 -0.408435 0.897976
vn -0.163768 -0.408435 0.897976
vn -0.163768 -0.408435 0.897976
vn -0.163768 -0.408435 0.897976
vn 0.870030 -0.471009 -0.145596
vn 0.870030 -0.471009 -0.145596
vn 0.870030 -0.471009 -0.145596
vn 0.731973 -0.657421 -0.178922
vn 0.731973 -0.657421 -0.178922
vn 0.731973 -0.657421 -0.178922
vn 0.731974 0.657421 -0.178921
vn 0.731974 0.657421 -0.178921
vn 0.731974 0.657421 -0.178921
vn 0.870030 0.471010 -0.145593
vn 0.870030 0.471010 -0.145593
vn 0.870030 0.471010 -0.145593
vn -0.870030 -0.471009 -0.145596
vn -0.870030 -0.471009 -0.145596
vn -0.870030 -0.471009 -0.145596
vn -0.870030 0.471009 -0.145596
vn -0.870030 0.471009 -0.145596
vn -0.870030 0.471009 -0.145596
vn -0.731973 0.657421 -0.178922
vn -0.731973 0.657421 -0.178922
vn -0.731973 0.657421 -0.178922
vn -0.731973 -0.657420 -0.178923
vn -0.731973 -0.657420 -0.178923
vn -0.731973 -0.657421 -0.178923
s 1
g pCylinder2 group1
usemtl initialShadingGroup
f 1/1/1 14/14/2 15/15/3 7/51/4
s off
f 2/2/5 3/3/6 9/53/7 8/49/8
f 3/3/9 4/4/10 10/52/11 9/53/12
s 2
f 4/4/13 16/16/14 17/17/15 10/52/16
s off
f 5/5/17 6/6/18 12/50/19 11/47/20
f 6/6/21 1/1/22 7/51/23 12/50/24
s 3
f 7/7/25 15/48/26 8/8/27 13/13/28
f 8/8/27 9/9/29 13/13/28
f 9/9/29 10/10/30 13/13/28
f 10/10/30 17/45/31 11/11/32 13/13/28
f 11/11/32 12/12/33 13/13/28
f 12/12/33 7/7/25 13/13/28
s 1
f 15/15/3 14/14/2 2/2/34 8/49/35
s 2
f 17/46/15 16/43/14 5/5/36 11/47/37
s off
f 6/6/38 5/5/39 18/42/40 19/40/41
f 5/5/42 16/43/43 20/44/44 18/42/45
f 14/14/46 1/1/47 22/41/48 21/37/49
f 1/1/50 6/6/51 19/40/52 22/41/53
f 4/4/54 3/3/55 23/39/56 24/35/57
f 3/3/58 2/2/59 25/38/60 23/39/61
f 2/2/62 14/14/63 21/37/64 25/38/65
f 16/16/66 4/4/67 24/35/68 20/36/69
f 19/18/70 18/19/71 26/27/72 27/26/73
f 18/19/74 20/55/75 28/54/76 26/27/77
f 21/21/78 22/22/79 30/30/80 29/29/81
f 22/22/82 19/18/83 27/26/84 30/30/85
f 24/23/86 23/24/87 31/32/88 32/31/89
f 23/24/90 25/25/91 33/33/92 31/32/93
f 25/25/94 21/21/95 29/29/96 33/33/97
f 20/20/98 24/23/99 32/31/100 28/28/101
f 27/26/102 26/27/103 34/34/104
f 26/27/105 28/54/106 34/34/107
f 29/29/108 30/30/109 34/34/110
f 30/30/111 27/26/112 34/34/113
f 32/31/114 31/32/115 34/34/116
f 31/32/117 33/33/118 34/34/119
f 33/33/120 29/29/121 34/34/122
f 28/28/123 32/31/124 34/34/125
g default
v 0.000000 9.983787 -3.176762
v -0.005064 9.821483 -3.327542
v 0.005064 9.821483 -3.327542
v 0.000000 9.891236 -3.884503
v 0.005064 9.821483 -3.925860
v -0.005064 9.821483 -3.925860
v 0.005064 9.821483 -3.843146
v -0.005064 9.821483 -3.843146
v 0.000000 9.872742 -3.733347
v 0.005064 9.821483 -3.733347
v -0.005064 9.821483 -3.733347
v 0.000000 10.001975 -3.468680
v 0.005064 9.821483 -3.522628
v -0.005064 9.821483 -3.522628
vt 0.044193 0.884810
vt 0.100227 0.814503
vt 0.103382 0.817137
vt 0.081325 0.918719
vt 0.346023 0.809818
vt 0.070115 0.895008
vt 0.306097 0.969424
vt 0.262430 0.912771
vt 0.255823 0.628174
vt 0.258977 0.630808
vt 0.312479 0.810840
vt 0.237467 0.656567
vt 0.096701 0.897472
vt 0.234313 0.653933
vt 0.268585 0.833079
vt 0.267952 0.812190
vt 0.208913 0.690761
vt 0.131993 0.900737
vt 0.205759 0.688127
vt 0.130461 0.917293
vt 0.162799 0.888660
vt 0.182498 0.814782
vt 0.154115 0.756383
vt 0.199722 0.907004
vt 0.150961 0.753749
vt 0.211726 0.966639
vt 0.330115 0.838691
vt 0.067253 0.896587
vn 0.000000 -0.680617 0.732639
vn 0.000000 -0.680617 0.732639
vn 0.000000 -0.680617 0.732639
vn 0.996665 0.081494 0.004216
vn 0.996501 0.083428 0.005114
vn 0.997375 0.072409 0.000000
vn 0.000000 0.509994 -0.860178
vn 0.000000 0.509994 -0.860178
vn 0.000000 0.509994 -0.860178
vn -0.996665 0.081494 0.004216
vn -0.997375 0.072409 0.000000
vn -0.996501 0.083427 0.005114
vn 0.000000 -1.000000 0.000000
vn 0.000000 -1.000000 0.000000
vn 0.000000 -1.000000 0.000000
vn 0.000000 -1.000000 0.000000
vn 0.998480 0.054390 -0.008920
vn 0.998420 0.055561 -0.008356
vn 0.000000 -1.000000 0.000000
vn 0.000000 -1.000000 0.000000
vn -0.998420 0.055561 -0.008356
vn -0.998480 0.054390 -0.008920
vn 0.999462 0.032743 -0.001912
vn 0.999294 0.037179 -0.005355
vn 0.000000 -1.000000 0.000000
vn 0.000000 -1.000000 0.000000
vn -0.999294 0.037179 -0.005355
vn -0.999462 0.032743 -0.001912
vn 0.999582 0.028889 0.001079
vn 0.999582 0.028889 0.001079
vn 0.000000 -1.000000 0.000000
vn 0.000000 -1.000000 0.000000
vn -0.999582 0.028889 0.001079
vn -0.999582 0.028889 0.001079
s off
g group1 pCube1 Plumas
usemtl initialShadingGroup
f 35/56/126 36/57/127 37/58/128
s 1
f 38/82/129 41/66/130 39/60/131
s off
f 38/59/132 39/83/133 40/61/134
s 2
f 38/59/135 40/61/136 42/68/137
s 3
f 41/67/138 42/69/139 40/64/140 39/65/141
s 1
f 43/70/142 44/71/143 41/66/130 38/82/129
s 3
f 44/72/144 45/74/145 42/69/139 41/67/138
s 2
f 38/59/135 42/68/137 45/73/146 43/75/147
s 1
f 46/76/148 47/77/149 44/71/143 43/70/142
s 3
f 47/78/150 48/80/151 45/74/145 44/72/144
s 2
f 43/75/147 45/73/146 48/79/152 46/81/153
s 1
f 35/56/154 37/58/155 47/77/149 46/76/148
s 3
f 36/57/156 48/80/151 47/78/150 37/58/157
s 2
f 46/81/153 48/79/152 36/63/158 35/62/159
g default
v 0.170271 9.688868 -3.176762
v 0.032244 9.774405 -3.327542
v 0.027180 9.765635 -3.327542
v 0.090120 9.735144 -3.884503
v 0.027180 9.765635 -3.925860
v 0.032244 9.774405 -3.925860
v 0.027180 9.765635 -3.843146
v 0.032244 9.774405 -3.843146
v 0.074104 9.744390 -3.733347
v 0.027180 9.765635 -3.733347
v 0.032244 9.774405 -3.733347
v 0.186023 9.679773 -3.468680
v 0.027180 9.765635 -3.522628
v 0.032244 9.774405 -3.522628
vt 0.044193 0.884810
vt 0.100227 0.814503
vt 0.103382 0.817137
vt 0.081325 0.918719
vt 0.346023 0.809818
vt 0.070115 0.895008
vt 0.306097 0.969424
vt 0.262430 0.912771
vt 0.255823 0.628174
vt 0.258977 0.630808
vt 0.312479 0.810840
vt 0.237467 0.656567
vt 0.096701 0.897472
vt 0.234313 0.653933
vt 0.268585 0.833079
vt 0.267952 0.812190
vt 0.208913 0.690761
vt 0.131993 0.900737
vt 0.205759 0.688127
vt 0.130461 0.917293
vt 0.162799 0.888660
vt 0.182498 0.814782
vt 0.154115 0.756383
vt 0.199722 0.907004
vt 0.150961 0.753749
vt 0.211726 0.966639
vt 0.330115 0.838691
vt 0.067253 0.896587
vn -0.589463 0.340329 0.732605
vn -0.589463 0.340329 0.732605
vn -0.589463 0.340329 0.732605
vn -0.427755 -0.903885 0.004213
vn -0.425999 -0.904710 0.005110
vn -0.435974 -0.899959 0.000000
vn 0.441719 -0.255044 -0.860138
vn 0.441719 -0.255044 -0.860138
vn 0.441719 -0.255044 -0.860138
vn 0.568904 0.822393 0.004213
vn 0.561387 0.827553 0.000000
vn 0.570497 0.821284 0.005110
vn -0.866019 0.500010 0.000000
vn -0.866019 0.500010 0.000000
vn -0.866019 0.500011 0.000000
vn -0.866019 0.500011 0.000000
vn -0.452139 -0.891903 -0.008917
vn -0.451094 -0.892437 -0.008354
vn -0.866020 0.500010 0.000000
vn -0.866020 0.500010 0.000000
vn 0.547328 0.836877 -0.008354
vn 0.546343 0.837514 -0.008917
vn -0.471377 -0.881930 -0.001911
vn -0.467451 -0.884003 -0.005353
vn -0.866020 0.500010 0.000000
vn -0.866020 0.500010 0.000000
vn 0.531847 0.846824 -0.005353
vn 0.528089 0.849187 -0.001912
vn -0.474775 -0.880106 0.001079
vn -0.474775 -0.880107 0.001079
vn -0.866020 0.500010 0.000000
vn -0.866020 0.500010 0.000000
vn 0.524811 0.851218 0.001077
vn 0.524811 0.851218 0.001077
s off
g group1 Plumas pCube2
usemtl initialShadingGroup
f 49/84/160 50/85/161 51/86/162
s 1
f 52/110/163 55/94/164 53/88/165
s off
f 52/87/166 53/111/167 54/89/168
s 2
f 52/87/169 54/89/170 56/96/171
s 3
f 55/95/172 56/97/173 54/92/174 53/93/175
s 1
f 57/98/176 58/99/177 55/94/164 52/110/163
s 3
f 58/100/178 59/102/179 56/97/173 55/95/172
s 2
f 52/87/169 56/96/171 59/101/180 57/103/181
s 1
f 60/104/182 61/105/183 58/99/177 57/98/176
s 3
f 61/106/184 62/108/185 59/102/179 58/100/178
s 2
f 57/103/181 59/101/180 62/107/186 60/109/187
s 1
f 49/84/188 51/86/189 61/105/183 60/104/182
s 3
f 50/85/190 62/108/185 61/106/184 51/86/191
s 2
f 60/109/187 62/107/186 50/91/192 49/90/193
g default
v -0.170271 9.688868 -3.176762
v -0.027180 9.765635 -3.327542
v -0.032244 9.774405 -3.327542
v -0.090120 9.735144 -3.884503
v -0.032244 9.774405 -3.925860
v -0.027180 9.765635 -3.925860
v -0.032244 9.774405 -3.843146
v -0.027180 9.765635 -3.843146
v -0.074104 9.744390 -3.733347
v -0.032244 9.774405 -3.733347
v -0.027180 9.765635 -3.733347
v -0.186023 9.679773 -3.468680
v -0.032244 9.774405 -3.522628
v -0.027180 9.765635 -3.522628
vt 0.044193 0.884810
vt 0.100227 0.814503
vt 0.103382 0.817137
vt 0.081325 0.918719
vt 0.346023 0.809818
vt 0.070115 0.895008
vt 0.306097 0.969424
vt 0.262430 0.912771
vt 0.255823 0.628174
vt 0.258977 0.630808
vt 0.312479 0.810840
vt 0.237467 0.656567
vt 0.096701 0.897472
vt 0.234313 0.653933
vt 0.268585 0.833079
vt 0.267952 0.812190
vt 0.208913 0.690761
vt 0.131993 0.900737
vt 0.205759 0.688127
vt 0.130461 0.917293
vt 0.162799 0.888660
vt 0.182498 0.814782
vt 0.154115 0.756383
vt 0.199722 0.907004
vt 0.150961 0.753749
vt 0.211726 0.966639
vt 0.330115 0.838691
vt 0.067253 0.896587
vn 0.589463 0.340329 0.732605
vn 0.589463 0.340329 0.732605
vn 0.589463 0.340329 0.732605
vn -0.568904 0.822393 0.004213
vn -0.570497 0.821284 0.005110
vn -0.561387 0.827553 0.000000
vn -0.441734 -0.255042 -0.860131
vn -0.441733 -0.255042 -0.860131
vn -0.441733 -0.255042 -0.860131
vn 0.427755 -0.903885 0.004213
vn 0.435974 -0.899959 0.000000
vn 0.425999 -0.904710 0.005110
vn 0.866019 0.500010 0.000000
vn 0.866019 0.500010 0.000000
vn 0.866019 0.500011 0.000000
vn 0.866019 0.500011 0.000000
vn -0.546343 0.837514 -0.008917
vn -0.547328 0.836877 -0.008354
vn 0.866020 0.500010 0.000000
vn 0.866020 0.500010 0.000000
vn 0.451094 -0.892437 -0.008354
vn 0.452139 -0.891903 -0.008917
vn -0.528089 0.849187 -0.001912
vn -0.531847 0.846824 -0.005353
vn 0.866020 0.500010 0.000000
vn 0.866020 0.500010 0.000000
vn 0.467451 -0.884003 -0.005353
vn 0.471377 -0.881930 -0.001911
vn -0.524811 0.851218 0.001077
vn -0.524811 0.851218 0.001077
vn 0.866020 0.500010 0.000000
vn 0.866020 0.500010 0.000000
vn 0.474775 -0.880107 0.001079
vn 0.474775 -0.880107 0.001079
s off
g group1 Plumas pCube3
usemtl initialShadingGroup
f 63/112/194 64/113/195 65/114/196
s 1
f 66/138/197 69/122/198 67/116/199
s off
f 66/115/200 67/139/201 68/117/202
s 2
f 66/115/203 68/117/204 70/124/205
s 3
f 69/123/206 70/125/207 68/120/208 67/121/209
s 1
f 71/126/210 72/127/211 69/122/198 66/138/197
s 3
f 72/128/212 73/130/213 70/125/207 69/123/206
s 2
f 66/115/203 70/124/205 73/129/214 71/131/215
s 1
f 74/132/216 75/133/217 72/127/211 71/126/210
s 3
f 75/134/218 76/136/219 73/130/213 72/128/212
s 2
f 71/131/215 73/129/214 76/135/220 74/137/221
s 1
f 63/112/222 65/114/223 75/133/217 74/132/216
s 3
f 64/113/224 76/136/219 75/134/218 65/114/225
s 2
f 74/137/221 76/135/220 64/119/226 63/118/227
